<?xml version="1.0" encoding="UTF-8" standalone="no"?>
  <svg
	 xmlns:dc="http://purl.org/dc/elements/1.1/"
	 xmlns:cc="http://creativecommons.org/ns#"
	 xmlns:rdf="http://www.w3.org/1999/02/22-rdf-syntax-ns#"
	 xmlns:svg="http://www.w3.org/2000/svg"
	 xmlns="http://www.w3.org/2000/svg"
	 id="hangman-image"
	 version="1.1"
	 viewBox="0 0 47.624999 52.916668">
	<defs
	   id="defs2" />
	<metadata
	   id="metadata5">
	  <rdf:RDF>
		<cc:Work
		   rdf:about="">
		  <dc:format>image/svg+xml</dc:format>
		  <dc:type
			 rdf:resource="http://purl.org/dc/dcmitype/StillImage" />
		  <dc:title></dc:title>
		</cc:Work>
	  </rdf:RDF>
	</metadata>
	<g
	   id="hangman-layer-main">
	  <path
		 id="frame-main"
		 d="M 2.1733631,51.782739 V 3.5907736 H 35.52976"
		 style="fill:none;stroke:#000000;stroke-width:1.32291667;stroke-linecap:butt;stroke-linejoin:miter;stroke-miterlimit:4;stroke-dasharray:none;stroke-opacity:1"/>
	  <path
		 id="frame-brace"
		 d="M 1.984375,11.717262 11.811756,3.4962796"
		 style="fill:none;stroke:#000000;stroke-width:1.32291667;stroke-linecap:butt;stroke-linejoin:miter;stroke-opacity:1;stroke-miterlimit:4;stroke-dasharray:none" />
	  <circle
		 r="4.8191962"
		 cy="15.402531"
		 cx="34.868305"
		 id="head"
		 style="fill:none;fill-opacity:1;stroke:#000000;stroke-width:1.32291667;stroke-linejoin:bevel;stroke-miterlimit:4;stroke-dasharray:none;" />
	  <path
		 id="body"
		 d="M 34.773809,20.31622 V 36.380207"
		 style="fill:none;stroke:#000000;stroke-width:1.32291667;stroke-linecap:butt;stroke-linejoin:miter;stroke-miterlimit:4;stroke-dasharray:none;stroke-opacity:1;"/>
	  <path
		 id="arm1"
		 d="M 34.679316,24.28497 22.584077,17.764881"
		 style="fill:none;stroke:#000000;stroke-width:1.32291667;stroke-linecap:butt;stroke-linejoin:miter;stroke-miterlimit:4;stroke-dasharray:none;stroke-opacity:1;"  />
	  <path
		 style="fill:none;stroke:#000000;stroke-width:1.32291667;stroke-linecap:butt;stroke-linejoin:miter;stroke-miterlimit:4;stroke-dasharray:none;stroke-opacity:1;"
		 d="M 46.963542,17.764881 34.868303,24.28497"
		 id="arm2"  />
	  <path
		 style="fill:none;stroke:#000000;stroke-width:1.32291667;stroke-linecap:butt;stroke-linejoin:miter;stroke-miterlimit:4;stroke-dasharray:none;stroke-opacity:1;"
		 d="M 34.831481,35.955659 26.986527,47.388091"
		 id="leg1"  />
	  <path
		 id="leg2"
		 d="m 34.640545,35.955659 7.844954,11.432432"
		 style="fill:none;stroke:#000000;stroke-width:1.32291667;stroke-linecap:butt;stroke-linejoin:miter;stroke-miterlimit:4;stroke-dasharray:none;stroke-opacity:1;"  />
	  <path
		 id="rope"
		 d="M 34.962798,3.1183035 V 10.772321"
		 style="fill:none;stroke:#000000;stroke-width:1.0583334;stroke-linecap:butt;stroke-linejoin:miter;stroke-miterlimit:4;stroke-dasharray:none;stroke-opacity:1;" visibility="hidden" />
	  <g
		 transform="matrix(0.40142257,0,0,0.40142257,40.102868,2.8967675)"
		 id="g-face">
		<path
		   style="fill:#000000;fill-opacity:1;stroke:none;stroke-width:3.99999976;stroke-linejoin:bevel;stroke-miterlimit:4;stroke-dasharray:none;"
		   d="m -65.357422,92.857422 a 7.6785709,7.6785709 0 0 0 -7.677734,7.677738 7.6785709,7.6785709 0 0 0 7.677734,7.67968 7.6785709,7.6785709 0 0 0 7.679688,-7.67968 7.6785709,7.6785709 0 0 0 -7.679688,-7.677738 z m 32.142578,0 a 7.6785709,7.6785709 0 0 0 -7.677734,7.677738 7.6785709,7.6785709 0 0 0 7.677734,7.67968 7.6785709,7.6785709 0 0 0 7.679688,-7.67968 7.6785709,7.6785709 0 0 0 -7.679688,-7.677738 z"
		   transform="scale(0.26458333)"
		   id="eyes-open"  />
		<path
		   style="fill:none;fill-opacity:1;stroke:#000000;stroke-width:1.05833328;stroke-linejoin:bevel;stroke-miterlimit:4;stroke-dasharray:none;"
		   d="m -6.7599525,32.845012 c 0,3.539732 -2.8116871,6.409251 -6.2800785,6.409251 -3.468392,0 -6.280078,-3.387901 -6.280078,-6.409251"
		   id="mouth-smile"  />
		<path
		   id="mouth-frown"
		   d="m -6.7377532,38.966435 c 0,-3.111438 -2.8216261,-5.633756 -6.3022778,-5.633756 -3.480652,0 -6.302277,2.977978 -6.302277,5.633756;"
		   style="fill:none;fill-opacity:1;stroke:#000000;stroke-width:0.99399471;stroke-linejoin:bevel;stroke-miterlimit:4;stroke-dasharray:none;" visibility="hidden" />
		<path
		   style="color:#000000;font-style:normal;font-variant:normal;font-weight:normal;font-stretch:normal;font-size:medium;line-height:normal;font-family:sans-serif;font-variant-ligatures:normal;font-variant-position:normal;font-variant-caps:normal;font-variant-numeric:normal;font-variant-alternates:normal;font-feature-settings:normal;text-indent:0;text-align:start;text-decoration:none;text-decoration-line:none;text-decoration-style:solid;text-decoration-color:#000000;letter-spacing:normal;word-spacing:normal;text-transform:none;writing-mode:lr-tb;direction:ltr;text-orientation:mixed;dominant-baseline:auto;baseline-shift:baseline;text-anchor:start;white-space:normal;shape-padding:0;clip-rule:nonzero;display:inline;overflow:visibility;opacity:1;isolation:auto;mix-blend-mode:normal;color-interpolation:sRGB;color-interpolation-filters:linearRGB;solid-color:#000000;solid-opacity:1;vector-effect:none;fill:#000000;fill-opacity:1;fill-rule:nonzero;stroke:none;stroke-width:0.79374999;stroke-linecap:butt;stroke-linejoin:miter;stroke-miterlimit:4;stroke-dasharray:none;stroke-dashoffset:0;stroke-opacity:1;color-rendering:auto;image-rendering:auto;shape-rendering:auto;text-rendering:auto;enable-background:accumulate;"
		   d="m -18.92856,24.351418 -0.56224,0.562756 1.680001,1.678967 -1.680001,1.680518 0.56224,0.560172 1.679484,-1.678967 1.680001,1.678967 0.560689,-0.560172 -1.679484,-1.680518 1.679484,-1.678967 -0.560689,-0.562756 -1.680001,1.680517 z m 8.419124,0 -0.56224,0.562756 1.6800014,1.678967 -1.6800014,1.680518 0.56224,0.560172 1.6794842,-1.678967 1.6800007,1.678967 0.5606894,-0.560172 -1.6794839,-1.680518 1.6794839,-1.678967 -0.5606894,-0.562756 -1.6800007,1.680517 z"
		   id="eyes-dead"
		 visibility="hidden" />
	  </g>
	</g>
  </svg>
